<svg xmlns="http://www.w3.org/2000/svg" viewBox="0 0 51.82 67.08"><defs><style>.cls-1{fill:#fff;}</style></defs><g id="Calque_2" data-name="Calque 2"><g id="Calque_1-2" data-name="Calque 1"><path class="cls-1" d="M4.75,0V26.21c-.37.52-.71,1.05-1,1.59A17.14,17.14,0,0,0,0,29.86V0Z"/><path class="cls-1" d="M48.47,28.41v25.5A25.46,25.46,0,0,1,43.72,60a25.18,25.18,0,0,1-3.48,2.77H11.58a25.68,25.68,0,0,1-6.83-6.64V54.83a17.89,17.89,0,0,0,5.89.75A20.91,20.91,0,0,0,46.56,41a20.67,20.67,0,0,0-2.84-10.51,20.89,20.89,0,0,0-33.06-4.05,14.44,14.44,0,0,0-1.47.05,18.42,18.42,0,0,0-4.44.9V26.21a25.9,25.9,0,0,1,39-3.86A25.61,25.61,0,0,1,48.47,28.41Z"/><path class="cls-1" d="M51.82,41.16a25.68,25.68,0,0,1-3.35,12.75V28.41A25.74,25.74,0,0,1,51.82,41.16Z"/><path class="cls-1" d="M40.24,62.75a25.88,25.88,0,0,1-28.66,0Z"/></g></g></svg>