<svg xmlns="http://www.w3.org/2000/svg" viewBox="0 0 125.5 162.15"><defs><style>.cls-1{fill:#00596a;stroke:#00596a;stroke-miterlimit:10;}</style></defs><g id="Calque_2" data-name="Calque 2"><g id="Calque_1-2" data-name="Calque 1"><path class="cls-1" d="M11.91.5v63c-.89,1.25-1.7,2.52-2.5,3.82A41.23,41.23,0,0,0,.5,72.24V.5Z"/><path class="cls-1" d="M117,68.75V130a62.35,62.35,0,0,1-19.77,21.23H28.32A61.64,61.64,0,0,1,11.91,135.3v-3.07A43.19,43.19,0,0,0,26.06,134a50.25,50.25,0,1,0,.05-69.94c-1.18,0-2.35,0-3.53.12a44.32,44.32,0,0,0-10.67,2.17V63.47a62.32,62.32,0,0,1,105,5.28Z"/><path class="cls-1" d="M125,99.38A62,62,0,0,1,117,130V68.76A62,62,0,0,1,125,99.38Z"/><path class="cls-1" d="M97.17,151.26a62.21,62.21,0,0,1-68.84,0Z"/></g></g></svg>